<svg xmlns="http://www.w3.org/2000/svg" width="737.102" height="545.438" viewBox="0 0 737.102 545.438">
  <g id="Group_1963" data-name="Group 1963" transform="translate(-208 -322.198)">
    <g id="Group_818" data-name="Group 818" transform="translate(208.007 322.217)" opacity="0.7">
      <path id="Path_3970" data-name="Path 3970" d="M11.85,429.97C23.514,479.822,48.2,522.915,87.226,543.8c81.094,43.409,263.981,21.023,400.477-4.7A312.554,312.554,0,0,0,665.431,437.515Z" transform="translate(-3.891 -141.096)" fill="#f90" opacity="0.15" style="isolation: isolate"/>
      <path id="Path_3971" data-name="Path 3971" d="M736.826,54.22H661.933a6.473,6.473,0,0,1,0-12.947H674.88a6.473,6.473,0,0,1,0-12.947h-9.245a6.473,6.473,0,0,1,0-12.947h39.089a103.435,103.435,0,0,0-30.489-8.4C567.651-6.718,529.6,2.338,516.173,11.677A149.263,149.263,0,0,1,461.389,35.69c-65.769,13.551-188.753,29.878-300.221-5.241-55.4-17.468-96.58,12.04-121.258,61.328H749.826c-.927-14.324-3.7-27.546-8.795-39.129A6.436,6.436,0,0,1,736.826,54.22Z" transform="translate(-13.098)" fill="#f90" opacity="0.15" style="isolation: isolate"/>
      <path id="Path_3972" data-name="Path 3972" d="M1.6,275.1a329.953,329.953,0,0,0,2.909,86.979l657.538,24.046a309.07,309.07,0,0,0,45.687-69.672Zm260.064,62.046H248.721a6.473,6.473,0,1,1,0,12.947H173.829a6.473,6.473,0,1,1,0-12.947h12.947a6.473,6.473,0,0,1,0-12.947h-9.245a6.473,6.473,0,0,1,0-12.947h74.892a6.473,6.473,0,1,1,0,12.947h9.245a6.473,6.473,0,0,1,0,12.947Z" transform="translate(0 -90.277)" fill="#f90" opacity="0.15" style="isolation: isolate"/>
      <path id="Path_3973" data-name="Path 3973" d="M737.6,137.28,19.723,154.748C11,177.2,5.237,202.572,2.55,228.875H725.023a306.676,306.676,0,0,0,10.434-47.252A223.9,223.9,0,0,0,737.6,137.28ZM148.29,194.5H135.344a6.473,6.473,0,1,1,0,12.947H60.451a6.473,6.473,0,0,1,0-12.947H73.4a6.473,6.473,0,0,1,0-12.947H64.153a6.473,6.473,0,0,1,0-12.947h74.892a6.473,6.473,0,0,1,0,12.947h9.245a6.473,6.473,0,0,1,0,12.947Z" transform="translate(-0.839 -45.053)" fill="#f90" opacity="0.15" style="isolation: isolate"/>
      <path id="Path_3975" data-name="Path 3975" d="M537.374,405.707,523.937,534.033l-71.889,22.843s-93.389-17.468-69.2-67.858c17.206-35.844,16.729-99.9,15.023-133.9-.672-13.8-1.586-22.648-1.586-22.648s122.279-106.826,112.2-10.75c-1.948,18.6-2.063,33.15-.981,44.518C512.038,413.568,537.374,405.707,537.374,405.707Z" transform="translate(-124.316 -92.424)" fill="#fdc2cc"/>
      <path id="Path_3976" data-name="Path 3976" d="M537.374,405.707,523.937,534.033l-71.889,22.843s-93.389-17.468-69.2-67.858c17.206-35.844,16.729-99.9,15.023-133.9-.672-13.8-1.586-22.648-1.586-22.648s122.279-106.826,112.2-10.75c-1.948,18.6-2.063,33.15-.981,44.518C512.038,413.568,537.374,405.707,537.374,405.707Z" transform="translate(-124.316 -92.424)" fill="#eee" style="isolation: isolate"/>
      <path id="Path_3977" data-name="Path 3977" d="M517,318.724c-1.948,18.6-2.063,33.15-.981,44.518a97.467,97.467,0,0,1-109.634-11.119c-.672-13.8-1.586-22.648-1.586-22.648S527.079,222.648,517,318.724Z" transform="translate(-132.832 -91.44)" opacity="0.1" style="isolation: isolate"/>
      <circle id="Ellipse_1101" data-name="Ellipse 1101" cx="97.42" cy="97.42" r="97.42" transform="translate(239.046 84.856)" fill="#fdc2cc"/>
      <circle id="Ellipse_1102" data-name="Ellipse 1102" cx="97.42" cy="97.42" r="97.42" transform="translate(239.046 84.856)" fill="#eee" style="isolation: isolate"/>
      <path id="Path_3978" data-name="Path 3978" d="M673.368,684.99H168.127l-7.39-63.827c-15.453-102.795,56.436-118.248,56.436-118.248l78.608-36.281,31.242-29.226C316.945,475.7,393.2,555.32,393.2,555.32h0a18.213,18.213,0,0,0,1.391-1.444c2.056-2.244,6.967-7.861,18.469-21.8,4.112-4.992,9.077-11.045,15.056-18.4,28.756-35.34,14-77.1,9.594-85.73l-.275-.538c-.168-.309-.3-.558-.4-.732h0a1.086,1.086,0,0,0-.1-.181,1.14,1.14,0,0,1-.074-.134l36.952,28.89s1.418.376,4.031,1.115c14.378,4.031,64.888,19.02,111.529,41.212C644.478,523.743,673.368,684.99,673.368,684.99Z" transform="translate(-52.032 -139.915)" fill="#353a44"/>
      <path id="Path_3979" data-name="Path 3979" d="M610.4,531.086c-6.047-6.047-47.03-13.437-47.03-13.437,1.344,16.125-48.374,40.984-48.374,40.984l3.7,126.31H494.851L490.82,571.4l11.422-16.125h0l1.391-1.444a221.681,221.681,0,0,0,18.469-21.8c4.112-4.992,9.077-11.045,15.056-18.4,28.756-35.34,14-77.1,9.594-85.73l-.275-.538c-.161-.316-.289-.558-.4-.732h0a1.081,1.081,0,0,0-.1-.181,1.133,1.133,0,0,1-.074-.134h0S558,423.635,579.5,446.478a62.989,62.989,0,0,1,7.39,9.849C604.358,484.358,615.726,536.414,610.4,531.086Z" transform="translate(-161.059 -139.867)" fill="#f90"/>
      <path id="Path_3980" data-name="Path 3980" d="M610.4,531.086c-6.047-6.047-47.03-13.437-47.03-13.437,1.344,16.125-48.374,40.984-48.374,40.984l3.7,126.31H494.851L490.82,571.4l11.422-16.125h0l1.391-1.444a221.681,221.681,0,0,0,18.469-21.8c4.112-4.992,9.077-11.045,15.056-18.4,28.756-35.34,14-77.1,9.594-85.73l-.275-.538c-.161-.316-.289-.558-.4-.732h0a1.081,1.081,0,0,0-.1-.181,1.133,1.133,0,0,1-.074-.134h0S558,423.635,579.5,446.478a62.989,62.989,0,0,1,7.39,9.849C604.358,484.358,615.726,536.414,610.4,531.086Z" transform="translate(-161.059 -139.867)" fill="none" opacity="0.1" style="isolation: isolate"/>
      <path id="Path_3981" data-name="Path 3981" d="M261.8,659.3s31.578,64.5,33.257,102.459" transform="translate(-85.909 -216.348)" opacity="0.1" style="isolation: isolate"/>
      <path id="Path_3982" data-name="Path 3982" d="M769.37,714.31l-9.07,65.507h9.07Z" transform="translate(-249.485 -234.399)" opacity="0.1" style="isolation: isolate"/>
      <path id="Path_3983" data-name="Path 3983" d="M272.3,671.8l50.054-113.881s14.109-26.875,17.468-53.749,21.5-69.2,21.5-69.2,45.015-57.108,65.842-49.046-18.14,38.3-18.14,38.3,57.108,22.171,18.14,88.014-39.64,53.749-39.64,53.749L368.376,671.8Z" transform="translate(-89.354 -126.385)" opacity="0.1" style="isolation: isolate"/>
      <path id="Path_3984" data-name="Path 3984" d="M270.3,671.789l50.054-113.881s14.109-26.874,17.468-53.749c2.137-17.085,10.246-40.419,15.869-55.153a84.555,84.555,0,0,1,15.937-26.2c14.552-16.286,40.984-42.549,55.536-36.905,20.828,8.062-18.14,38.3-18.14,38.3s57.108,22.171,18.14,88.014-39.64,53.749-39.64,53.749L366.376,671.776Z" transform="translate(-88.698 -126.378)" fill="#6a6b6d"/>
      <circle id="Ellipse_1103" data-name="Ellipse 1103" cx="2.016" cy="2.016" r="2.016" transform="translate(364.349 125.504)" fill="#fff" opacity="0.15" style="isolation: isolate"/>
      <circle id="Ellipse_1104" data-name="Ellipse 1104" cx="2.016" cy="2.016" r="2.016" transform="translate(354.943 129.535)" fill="#fff" opacity="0.15" style="isolation: isolate"/>
      <path id="Path_3985" data-name="Path 3985" d="M382.178,72.9c9.722-3.144,20.512-2.466,29.837-6.645,12.611-5.657,20.559-19.35,33.647-23.784,5.832-1.975,12.161-1.9,18.281-1.27a108.219,108.219,0,0,1,54.192,21.412c12.974,9.87,25.148,23.327,41.414,24.382,3.93.255,7.928-.262,11.778.564,9.97,2.137,15.943,12.409,18.812,22.171a83.484,83.484,0,0,1-10.521,68.933c-3.682,5.509-8.17,10.9-9.077,17.468-.887,6.436,1.854,13.108.255,19.41-1.344,5.22-5.375,9.238-9.3,12.94q-20.324,19.222-41.541,37.456c-7.35-23.354,3.433-48.5,1.754-72.924-.672-9.514-4.031-19.9-12.423-24.389-7.854-4.192-17.892-2.016-25.84-6.047-8.869-4.468-12.51-15.05-19.215-22.373-11.422-12.5-31.248-14.109-47.218-8.465S387.989,149,375.358,160.321L352.4,180.913c-4.481-5.052-1.082-12.806,1.344-19.121,3.615-9.467,4.407-19.672,4.166-29.723-.195-8.062-2.976-16.024-2.815-23.871C355.417,92.718,367.7,77.588,382.178,72.9Z" transform="translate(-114.92 -13.398)" opacity="0.1" style="isolation: isolate"/>
      <path id="Path_3986" data-name="Path 3986" d="M382.178,69.9c9.722-3.144,20.512-2.466,29.837-6.645,12.611-5.657,20.559-19.35,33.647-23.784,5.832-1.975,12.161-1.9,18.281-1.27a108.219,108.219,0,0,1,54.192,21.412c12.974,9.87,25.148,23.327,41.414,24.382,3.93.255,7.928-.262,11.778.564,9.97,2.137,15.943,12.409,18.812,22.171a83.484,83.484,0,0,1-10.521,68.933c-3.682,5.509-8.17,10.9-9.077,17.468-.887,6.436,1.854,13.108.255,19.41-1.344,5.22-5.375,9.238-9.3,12.94q-20.324,19.222-41.541,37.456c-7.35-23.354,3.433-48.5,1.754-72.924-.672-9.514-4.031-19.9-12.423-24.389-7.854-4.192-17.892-2.016-25.84-6.047-8.869-4.468-12.51-15.05-19.215-22.373-11.422-12.5-31.248-14.109-47.218-8.465S387.989,146,375.358,157.321L352.4,177.913c-4.481-5.052-1.082-12.806,1.344-19.121,3.615-9.467,4.407-19.672,4.166-29.723-.195-8.062-2.976-16.024-2.815-23.871C355.417,89.718,367.7,74.588,382.178,69.9Z" transform="translate(-114.92 -12.413)" fill="#353a44"/>
    </g>
  </g>
</svg>
