<svg id="google_2_" data-name="google (2)" xmlns="http://www.w3.org/2000/svg" width="50.191" height="50.191" viewBox="0 0 50.191 50.191">
  <path id="Path_3995" data-name="Path 3995" d="M74.073,310.534A24.817,24.817,0,0,1,36.4,304.152l1.629-7.511,7.223-1.341a13.327,13.327,0,0,0,12.675,9.382,13.045,13.045,0,0,0,7.764-2.529l6.941,1.059Z" transform="translate(-32.832 -266.352)" fill="#59c36a"/>
  <path id="Path_3996" data-name="Path 3996" d="M272.146,373.582l-1.441-7.323-6.941-1.059A13.044,13.044,0,0,1,256,367.729v11.862A25.057,25.057,0,0,0,272.146,373.582Z" transform="translate(-230.904 -329.399)" fill="#00a66c"/>
  <g id="Connected_Home_1_" transform="translate(0 12.391)">
    <g id="Group_832" data-name="Group 832" transform="translate(0)">
      <g id="Group_831" data-name="Group 831">
        <g id="Group_830" data-name="Group 830">
          <path id="Path_3997" data-name="Path 3997" d="M11.862,139.1a13.706,13.706,0,0,0,.559,3.853l-8.852,8.852a24.4,24.4,0,0,1,0-25.409l7.1,1.223,1.748,7.629A13.7,13.7,0,0,0,11.862,139.1Z" transform="translate(0 -126.4)" fill="#ffda2d"/>
        </g>
      </g>
    </g>
  </g>
  <path id="Path_3998" data-name="Path 3998" d="M267.566,201.882a25.056,25.056,0,0,1-8.95,19.086l-8.382-8.382a13.013,13.013,0,0,0,4.088-4.823H242.47a1.456,1.456,0,0,1-1.47-1.47V197.47a1.456,1.456,0,0,1,1.47-1.47h23.214a1.453,1.453,0,0,1,1.441,1.206A24.935,24.935,0,0,1,267.566,201.882Z" transform="translate(-217.375 -176.786)" fill="#4086f4"/>
  <path id="Path_3999" data-name="Path 3999" d="M267.852,207.764a13.014,13.014,0,0,1-4.088,4.823l8.382,8.382a24.855,24.855,0,0,0,8.509-23.763A1.453,1.453,0,0,0,279.213,196H256v11.764Z" transform="translate(-230.904 -176.786)" fill="#4175df"/>
  <path id="Path_4000" data-name="Path 4000" d="M74.485,7.009A1.484,1.484,0,0,1,74.073,8.1l-6.294,6.264a1.44,1.44,0,0,1-1.911.147,13.154,13.154,0,0,0-7.941-2.647,13.327,13.327,0,0,0-12.675,9.381L36.4,12.391a24.8,24.8,0,0,1,37.555-6.47,1.546,1.546,0,0,1,.529,1.088Z" transform="translate(-32.832 0)" fill="#ff641a"/>
  <path id="Path_4001" data-name="Path 4001" d="M263.94,14.508a1.44,1.44,0,0,0,1.911-.147L272.145,8.1a1.483,1.483,0,0,0,.412-1.088,1.547,1.547,0,0,0-.529-1.088A25.02,25.02,0,0,0,256,0V11.862A13.154,13.154,0,0,1,263.94,14.508Z" transform="translate(-230.904 0)" fill="#f03800"/>
</svg>
