<svg xmlns="http://www.w3.org/2000/svg" xmlns:xlink="http://www.w3.org/1999/xlink" width="602" height="602" viewBox="0 0 602 602">
  <defs>
    <filter id="Ellipse_1106" x="46" y="46" width="510" height="510" filterUnits="userSpaceOnUse">
      <feOffset input="SourceAlpha"/>
      <feGaussianBlur stdDeviation="10" result="blur"/>
      <feFlood flood-opacity="0.102"/>
      <feComposite operator="in" in2="blur"/>
      <feComposite in="SourceGraphic"/>
    </filter>
  </defs>
  <g id="Group_1965" data-name="Group 1965" transform="translate(-262 -194)">
    <g id="Group_1964" data-name="Group 1964">
      <circle id="Ellipse_1120" data-name="Ellipse 1120" cx="301" cy="301" r="301" transform="translate(262 194)" fill="rgba(100,100,100,0.5)"/>
    </g>
    <circle id="Ellipse_1105" data-name="Ellipse 1105" cx="262" cy="262" r="262" transform="translate(301 233)" fill="rgba(100,100,100,0.5)"/>
    <g transform="matrix(1, 0, 0, 1, 262, 194)" filter="url(#Ellipse_1106)">
      <circle id="Ellipse_1106-2" data-name="Ellipse 1106" cx="225" cy="225" r="225" transform="translate(76 76)" fill="#fff"/>
    </g>
    <g id="Group_828" data-name="Group 828" transform="translate(202.69 181.708)">
      <g id="Group_821" data-name="Group 821" transform="translate(251.31 175.292)">
        <g id="Group_820" data-name="Group 820">
          <g id="Group_819" data-name="Group 819">
            <path id="Path_3987" data-name="Path 3987" d="M448.655,207.108l-88.59-31.816-87.73,31.387c-11.2,5.288-21.025,8.458-21.025,18.888v51.948a196.355,196.355,0,0,0,28.9,103.387c16.365,26.557,41.7,53.9,80.716,71.285,35.86-11.651,62.628-42.7,78.993-69.259a196.355,196.355,0,0,0,28.9-103.387V232.828C468.817,217.949,460.931,210.685,448.655,207.108Z" transform="translate(-251.31 -175.292)" fill="#fff"/>
          </g>
        </g>
      </g>
      <g id="Group_823" data-name="Group 823" transform="translate(251.31 175.292)">
        <g id="Group_822" data-name="Group 822">
          <path id="Path_3988" data-name="Path 3988" d="M360.925,422.038c-30.863-13.749-50.912-35.848-63.86-56.858a155.338,155.338,0,0,1-22.864-81.8v-36.44c0-8.252,4.979-15.984,14.868-20.6L360.08,199.79l-.015-24.5-87.73,31.387c-9.208,4.02-21.025,8.458-21.025,18.888v51.948a196.355,196.355,0,0,0,28.9,103.387c16.365,26.557,41.7,53.9,80.716,71.285Z" transform="translate(-251.31 -175.292)" fill="#373a43"/>
        </g>
      </g>
      <g id="Group_825" data-name="Group 825" transform="translate(360.065 175.292)">
        <g id="Group_824" data-name="Group 824">
          <path id="Path_3989" data-name="Path 3989" d="M288.715,452.187a106.921,106.921,0,0,0,17.4-7.464c14.71-8.014,27.257-19.016,36.83-28.974,10.71-11.139,18.692-23.176,25.62-34.419a189,189,0,0,0,28.039-104.38l.054-42.889c-.054-21.355-11.008-22.929-20.215-26.953l-88.59-31.816.015,24.5,71.839,26.983c9.889,4.616,14.868,12.347,14.868,20.6v36.44a155.337,155.337,0,0,1-22.864,81.8c-12.948,21.01-32.134,42.681-63,56.429Z" transform="translate(-287.855 -175.292)" fill="#6a6b6d"/>
        </g>
      </g>
      <path id="Path_3990" data-name="Path 3990" d="M341.378,234.858l.112-7.97a26.147,26.147,0,0,0-52.295-.037l-.115,8.119a14.62,14.62,0,0,0-12.473,14.452v47.01a14.63,14.63,0,0,0,14.632,14.631h48.8a14.63,14.63,0,0,0,14.632-14.631v-47.01A14.63,14.63,0,0,0,341.378,234.858Zm-19.063,49.875H309.55l1.993-9.219a7.776,7.776,0,1,1,8.434-.149C320.88,278.941,322.314,284.733,322.314,284.733Zm13.431-49.943H294.719l.108-7.9a20.515,20.515,0,0,1,41.029-.037Z" transform="translate(45.286 43.654)" fill="#f90"/>
      <path id="Path_3991" data-name="Path 3991" d="M301.408,226.373a7.783,7.783,0,1,0-11.878,6.61l-1.993,9.219H300.3s-1.434-5.792-2.338-9.367A7.772,7.772,0,0,0,301.408,226.373Z" transform="translate(67.298 86.186)" fill="#fff"/>
      <path id="Path_3992" data-name="Path 3992" d="M302.583,202.409a20.536,20.536,0,0,0-20.515,20.511l-.108,7.9h41.026l.112-7.94A20.53,20.53,0,0,0,302.583,202.409Z" transform="translate(58.046 47.622)" fill="#fff"/>
      <g id="Group_826" data-name="Group 826" transform="translate(286.454 233.771)">
        <path id="Path_3993" data-name="Path 3993" d="M265.222,241.713c-.2.027-.809-2.705-1.327-7.2a123.083,123.083,0,0,1-.72-17.635c.1-3.452.327-6.732.64-9.708a20.8,20.8,0,0,1,1.979-7.839,8.98,8.98,0,0,1,3.881-3.9c1.2-.559,1.949-.533,1.961-.449.149.2-2.991.812-4.863,4.842a21.526,21.526,0,0,0-1.536,7.475c-.235,2.952-.417,6.2-.515,9.621-.2,6.83.015,13.02.265,17.5S265.451,241.683,265.222,241.713Z" transform="translate(-263.119 -194.943)" fill="#fff"/>
      </g>
      <g id="Group_827" data-name="Group 827" transform="translate(288.985 293.588)">
        <path id="Path_3994" data-name="Path 3994" d="M264.845,224.608c-.429.009-.818-2.125-.869-4.764s.253-4.791.679-4.8.818,2.128.869,4.767S265.271,224.6,264.845,224.608Z" transform="translate(-263.97 -215.043)" fill="#fff"/>
      </g>
    </g>
  </g>
</svg>
